<svg xmlns="http://www.w3.org/2000/svg" viewBox="0 0 64 64">
  <!-- Browser-tab mark: the Atelier sprig on a cream disc -->
  <circle cx="32" cy="32" r="30" fill="#f7f3ec" stroke="#b0714a" stroke-width="2.5"/>
  <g transform="translate(32,32) scale(0.58) translate(-30,-41)" fill="none" stroke="#414a3d" stroke-width="3.2" stroke-linecap="round" stroke-linejoin="round">
    <path d="M30 76C30 50 30 28 30 6"/>
    <path d="M30 20c-8-2-13-8-14-16 8 1 13 7 14 16zM30 20c8-2 13-8 14-16-8 1-13 7-14 16z"/>
    <path d="M30 40c-9-2-15-8-16-17 9 1 15 8 16 17zM30 40c9-2 15-8 16-17-9 1-15 8-16 17z"/>
    <path d="M30 60c-9-2-15-8-16-17 9 1 15 8 16 17zM30 60c9-2 15-8 16-17-9 1-15 8-16 17z"/>
  </g>
</svg>
